<svg xmlns="http://www.w3.org/2000/svg" xmlns:xlink="http://www.w3.org/1999/xlink" version="1.1" x="0px" y="0px" viewBox="0 0 100 125" enable-background="new 0 0 100 100" xml:space="preserve"><path d="M1.162,32.53l0.037,0.01c2.101,0.575,4.376,0.811,6.588,0.685c2.221-0.117,4.39-0.549,6.479-1.086  c2.094-0.541,4.11-1.175,6.126-1.769c2.047-0.602,4.087-1.269,6.094-1.971c3.986-1.457,7.84-2.878,11.772-3.799  c1.968-0.453,3.943-0.792,5.911-1.108c1.968-0.322,3.948-0.541,5.932-0.601c3.967-0.12,7.939,0.332,11.783,1.402  c3.848,1.138,7.82,2.633,11.737,4.099c3.935,1.478,7.888,3,11.939,4.298c4.045,1.3,8.181,2.438,12.418,3.019  c0.396,0.053,0.781-0.2,0.877-0.597c0.103-0.425-0.158-0.852-0.582-0.955c-8.089-1.958-15.649-5.517-23.319-8.985  c-1.919-0.87-3.848-1.738-5.799-2.579c-1.969-0.833-3.888-1.682-6.01-2.394c-4.194-1.417-8.652-2.16-13.098-2.173  c-2.222-0.011-4.444,0.123-6.635,0.43c-2.193,0.306-4.335,0.863-6.423,1.528c-4.193,1.291-8.147,3.061-11.958,4.751  c-1.9,0.854-3.802,1.661-5.737,2.415c-1.969,0.751-3.921,1.521-5.859,2.18c-3.869,1.339-7.832,2.079-11.811,1.265  c-0.508-0.103-1.02,0.204-1.159,0.712C0.32,31.838,0.632,32.385,1.162,32.53z"/><path d="M98.429,43.402c-8.082-1.966-16.1-4.459-23.773-7.558c-3.853-1.6-7.791-3.273-11.954-4.485  c-4.143-1.259-8.532-1.987-12.938-2.036C45.408,29.296,41,29.75,36.768,30.915c-4.24,1.127-8.203,2.831-12.031,4.547l-2.875,1.271  c-0.938,0.403-1.893,0.783-2.857,1.152c-1.929,0.738-3.889,1.432-5.86,2.102c-3.948,1.311-7.958,2.519-12.021,3.42  c-0.356,0.08-0.675,0.292-0.892,0.595h0v0c-0.082,0.115-0.152,0.24-0.2,0.379c-0.147,0.429-0.083,0.875,0.129,1.239  c-0.027,1.639,0.082,3.897,0.913,3.631c1.64-0.525,1.764-1.786,4.384-1.502c2.5,0.831,4.992,1.69,7.446,2.612  c1.939,0.735,3.873,1.475,5.748,2.294c1.856,0.838,3.885,1.733,5.869,2.483c7.996,3.072,16.575,4.868,25.254,4.838  c5.863-0.059,11.657-0.981,17.261-2.53c-1.526,1.483-2.986,3.014-4.43,4.524c-3.548,3.839-6.983,7.688-10.675,11.219  c-3.689,3.524-7.604,6.759-11.868,9.412c-4.237,2.632-8.814,4.67-13.609,6.01c-2.571,0.491-5.189,0.569-7.669,0.082  c-2.498-0.475-4.852-1.558-6.738-3.193c-1.877-1.631-3.31-3.803-3.784-6.136c-0.508-2.334,0.034-4.794,1.453-6.789  c1.382-2.007,3.61-3.553,5.983-4.354c2.283-0.749,4.933-0.389,6.968,1.023c1.009,0.703,1.883,1.624,2.496,2.719  c0.639,1.13,0.969,2.264,0.887,3.502c-0.07,1.139-0.512,2.234-1.199,3.189c0.098-0.4,0.164-0.812,0.164-1.243  c0-2.903-2.354-5.258-5.259-5.258c-2.904,0-5.258,2.354-5.258,5.258c0,2.904,2.354,5.26,5.258,5.26c0.623,0,1.211-0.127,1.766-0.326  c0.154,0.097,0.344,0.134,0.531,0.074l0.027-0.008c1.431-0.452,2.821-1.292,3.879-2.456c1.059-1.163,1.811-2.662,2.028-4.285  c0.248-1.607-0.153-3.351-0.834-4.734c-0.682-1.443-1.723-2.73-3.006-3.714c-2.554-1.979-6.089-2.718-9.274-1.817  c-3.045,0.896-5.818,2.63-7.811,5.232c-1.988,2.573-2.902,6.112-2.28,9.383c0.568,3.296,2.421,6.156,4.789,8.283  c2.383,2.146,5.361,3.563,8.44,4.205c3.09,0.646,6.249,0.54,9.243-0.014c0.045-0.009,0.094-0.02,0.138-0.031l0.015-0.005  c5.209-1.396,10.222-3.586,14.775-6.456c4.576-2.841,8.697-6.31,12.445-10.047c3.767-3.726,7.198-7.702,10.643-11.56  c2.024-2.288,4.062-4.561,6.23-6.616v33.979c0,0.569,0.264,1.058,0.824,1.16c0.072,0.014,0.074,0.02,0.146,0.02  c0.48,0,0.887-0.293,1.063-0.755c0.054-0.139,5.344-13.84,10.501-19.321c0.423-0.448,0.591-1.451-0.008-1.6  c-0.613-0.153-0.541-0.035-1.864,0.494c-0.014,0.005-0.906,0.27-2.286,0.27c-3.473,0-5.703-5.862-6.215-16.172  c0.432-0.359,0.869-0.709,1.312-1.049c1.99-0.768,3.968-1.721,5.796-2.484c1.89-0.783,3.832-1.498,5.789-2.179  c3.905-1.385,7.896-2.651,11.88-3.804l0.055-0.016c0.502-0.146,0.914-0.55,1.047-1.094C99.738,44.417,99.24,43.6,98.429,43.402z   M25.809,51.683c-1.952-0.699-3.778-1.461-5.761-2.312c-1.985-0.817-3.975-1.563-5.983-2.245c-2.409-0.817-4.825-1.57-7.251-2.295  c2.394-0.711,4.792-1.401,7.192-2.113c2.023-0.589,4.042-1.203,6.058-1.873c1.007-0.335,2.016-0.687,3.02-1.063l2.956-1.069  c3.939-1.399,7.817-2.728,11.742-3.514c0.734-0.146,1.473-0.262,2.211-0.377c-2.794,2.427-4.537,5.818-4.537,9.579  c0,4.74,2.769,8.894,6.93,11.263C36.753,55.018,31.182,53.615,25.809,51.683z M85.451,46.845c-2.017,0.657-4.026,1.351-6.028,2.133  c-2.053,0.814-3.866,1.651-5.803,2.351c-4.735,1.786-9.636,3.148-14.604,3.944c3.797-2.421,6.281-6.384,6.281-10.874  c0-3.373-1.408-6.445-3.713-8.796c3.945,0.912,7.859,2.2,11.848,3.533c6.319,2.145,12.68,3.93,19.049,5.728  C90.138,45.512,87.781,46.11,85.451,46.845z"/><text x="0" y="115" fill="#000000" font-size="5px" font-weight="bold" font-family="'Helvetica Neue', Helvetica, Arial-Unicode, Arial, Sans-serif">Created by Cass Reese</text><text x="0" y="120" fill="#000000" font-size="5px" font-weight="bold" font-family="'Helvetica Neue', Helvetica, Arial-Unicode, Arial, Sans-serif">from the Noun Project</text></svg>